HIERARCHY
ROOT pelvis
{
  OFFSET 0 100 0
  CHANNELS 6 Xposition Yposition Zposition Zrotation Xrotation Yrotation
  JOINT pelvis_right_femur
  {
    OFFSET -10.78128 -3.44521 -0.5502486
    CHANNELS 3 Zrotation Xrotation Yrotation
    JOINT right_femur_tibia
    {
      OFFSET -0.8047443 -44.0398 -0.1307829
      CHANNELS 3 Zrotation Xrotation Yrotation
      JOINT right_tibia_foot
      {
        OFFSET 3.006224 -47.83518 -5
        CHANNELS 3 Zrotation Xrotation Yrotation
        End Site
        {
          OFFSET 0 -5 15
        }
      }
    }
  }
  JOINT pelvis_left_femur
  {
    OFFSET 10.78128 -3.44521 -0.5502486
    CHANNELS 3 Zrotation Xrotation Yrotation
    JOINT left_femur_tibia
    {
      OFFSET 0.8047443 -44.0398 -0.1307829
      CHANNELS 3 Zrotation Xrotation Yrotation
      JOINT left_tibia_foot
      {
        OFFSET -4.370144 -48.10324 -4.275266
        CHANNELS 3 Zrotation Xrotation Yrotation
        End Site
        {
          OFFSET 0 -5 15
        }
      }
    }
  }
  JOINT pelvis_spine1
  {
    OFFSET 0 6.468898 -3.129235
    CHANNELS 3 Zrotation Xrotation Yrotation
    JOINT spine1
    {
      OFFSET 0 23.15396 4.99043
      CHANNELS 3 Zrotation Xrotation Yrotation
      JOINT spine2
      {
        OFFSET 0 20.79997 -5.064912
        CHANNELS 3 Zrotation Xrotation Yrotation
        JOINT neck
        {
          OFFSET 0 14.38658 9.616178
          CHANNELS 3 Zrotation Xrotation Yrotation
          End Site
          {
            OFFSET 0 20 0
          }
        }
      }
      JOINT right_manubrium
      {
        OFFSET -5.722621 16.35077 3.967754
        CHANNELS 3 Zrotation Xrotation Yrotation
        JOINT right_clavicle
        {
          OFFSET -13.16364 1.694482 -4.693211
          CHANNELS 3 Zrotation Xrotation Yrotation
          JOINT right_humerus
          {
            OFFSET -28.5034 -0.3100689 -2.792744
            CHANNELS 3 Zrotation Xrotation Yrotation
            JOINT right_radius
            {
              OFFSET -25.15693 0.02248979 -1.271978
              CHANNELS 3 Zrotation Xrotation Yrotation
              End Site
              {
                OFFSET -15 0 0
              }
            }
          }
        }
      }
      JOINT left_manubrium
      {
        OFFSET 5.722621 16.35077 3.967754
        CHANNELS 3 Zrotation Xrotation Yrotation
        JOINT left_clavicle
        {
          OFFSET 13.16364 1.694482 -4.693211
          CHANNELS 3 Zrotation Xrotation Yrotation
          JOINT left_humerus
          {
            OFFSET 29.39168 -1.063119 -2.237045
            CHANNELS 3 Zrotation Xrotation Yrotation
            JOINT left_radius
            {
              OFFSET 24.59957 -0.9528479 0.9047498
              CHANNELS 3 Zrotation Xrotation Yrotation
              End Site
              {
                OFFSET 15 -0 -0
              }
            }
          }
        }
      }
    }
  }
}
MOTION
Frames: 11
Frame Time: 0.0416666666667
0 103.5113 0 0.8353242 -1.252619 -0.3466231 3.860575 -15.06034 10.64855 -0 42.79838 -0 -6.402318 -16.35701 -2.795885 -6.993448 9.350292 -22.59445 -0 5.437517 -0 13.83279 -11.39756 29.62345 -3.574253 -4.152343 4.847635 2.520893 11.37384 -8.029164 0.6953036 21.45784 7.038319 3.688723 -23.71343 8.481149 8.182636 -20.74236 12.66049 84.54293 38.51701 -17.57335 -0 0 17.37717 -7.750929 7.541689 4.733835 5.509019 -19.98201 -2.539517 -92.3841 19.9958 21.17903 0 0 -13.19748 13.88782 14.21714 -2.795474
0.3651808 104.3255 1.379154 0.8482613 -1.42178 -0.6705123 3.684098 -15.40871 10.05787 -0 42.46617 -0 -6.658211 -15.82712 -2.728407 -6.933761 9.641072 -22.17937 -0 5.259264 -0 13.72548 -11.46044 29.17902 -3.5683 -4.004812 4.673121 2.480886 11.33348 -8.006759 0.6487605 21.58716 7.052353 3.696534 -23.52539 8.394547 7.961048 -20.54052 12.60741 84.83482 38.23794 -17.69068 -0 0 16.8235 -8.106817 7.398918 4.859493 5.556758 -20.15117 -2.717241 -91.84368 19.60947 20.46136 0 0 -13.49281 14.37356 14.10741 -3.436327
0.7499605 104.8128 3.057661 0.7633831 -0.5095287 -0.9174773 4.059462 -18.74208 9.318863 -0 36.891 -0 -5.611972 -15.15137 -2.411605 -6.998943 10.05748 -21.86793 -0 5.044266 -0 12.14544 -14.73449 28.18933 -3.600908 -3.654808 5.024322 2.540125 10.55409 -7.859627 1.00578 21.24699 7.13644 3.720356 -24.14821 8.96438 7.26998 -20.16853 12.13023 84.8953 37.07375 -18.10256 -0 0 16.94312 -8.224778 7.955324 4.418574 6.521837 -20.40652 -1.916383 -92.05636 20.17274 20.08891 0 0 -14.73288 14.01325 14.68715 -3.094947
1.111568 105.0208 5.094117 0.5984466 0.1963498 -1.029137 4.355739 -21.90669 8.309535 -0 32.31191 -0 -5.219338 -13.79473 -2.191998 -6.922852 10.81004 -21.23511 -0 5.066523 -0 10.38968 -17.60717 26.78587 -3.579708 -3.225147 5.043566 2.615226 9.841329 -7.798554 1.251216 21.06877 7.227728 3.755089 -24.65469 9.363177 6.524099 -19.63665 11.68347 85.27843 35.95631 -18.71059 -0 0 16.4198 -8.488988 8.288555 4.143887 7.273571 -20.75383 -1.335867 -91.93523 20.82496 19.37432 0 0 -15.97524 13.6271 15.24563 -2.689074
1.438196 105.0279 7.500264 0.3503022 0.9311326 -1.004396 4.753405 -24.94777 7.428964 -0 28.32819 -0 -5.165093 -12.07689 -1.989981 -6.768208 11.57154 -20.5001 -0 5.389389 -0 8.630961 -20.09422 25.27329 -3.495134 -2.828266 4.959327 2.717947 9.267434 -7.827025 1.432448 20.83636 7.321645 3.838574 -25.1778 9.646491 5.925418 -19.12317 11.31605 85.66817 35.09165 -19.35451 -0 0 15.81456 -8.718557 8.58972 3.931597 7.927197 -21.15232 -0.8163895 -91.78871 21.36902 18.71739 0 0 -17.09138 13.25748 15.67544 -2.270551
1.713733 104.8887 10.31358 0.01572208 1.634893 -0.8343383 5.213548 -27.88018 6.567668 -0 24.82113 -0 -5.440877 -10.03347 -1.811296 -6.518367 12.43738 -19.60652 -0 6.061687 -0 6.737742 -22.20217 23.52262 -3.325286 -2.4271 4.732452 2.83442 8.778931 -7.922057 1.552614 20.6053 7.418799 3.948412 -25.66702 9.824252 5.388255 -18.56665 10.99512 86.13666 34.36009 -20.06131 -0 0 15.01688 -8.977902 8.838709 3.791491 8.467388 -21.5861 -0.4000864 -91.54372 21.85916 17.99955 0 0 -18.14321 12.87019 16.00558 -1.816121
1.929736 104.6676 13.56501 -0.4122322 2.312615 -0.5205831 5.775471 -30.58703 5.819885 -0 21.83962 -0 -5.991188 -7.794303 -1.641729 -6.174772 13.33347 -18.59831 -0 7.180509 -0 4.728311 -23.80987 21.57373 -3.045921 -2.042303 4.39218 2.95903 8.391571 -8.076783 1.613093 20.35515 7.517207 4.082402 -26.11981 9.897885 4.948131 -17.9999 10.73205 86.63331 33.79659 -20.78826 -0 0 14.1307 -9.24148 9.059325 3.719985 8.870457 -22.01516 -0.09642457 -91.26514 22.28527 17.32183 0 0 -19.0691 12.42683 16.20331 -1.279184
2.083854 104.4346 17.28939 -0.9347549 2.938742 -0.07426911 6.455858 -32.92305 5.221917 -0 19.41626 -0 -6.779238 -5.47843 -1.468266 -5.7334 14.20566 -17.48177 -0 8.897229 -0 2.61302 -24.7597 19.42861 -2.627332 -1.685212 3.952948 3.081601 8.115639 -8.280471 1.608694 20.08744 7.615011 4.233393 -26.50841 9.858764 4.612641 -17.43538 10.53305 87.14401 33.39975 -21.50837 -0 0 13.20233 -9.520331 9.258988 3.728225 9.101133 -22.40503 0.05821656 -90.97209 22.61917 16.72875 0 0 -19.83231 11.91179 16.22866 -0.6465701
2.182928 104.2713 21.51533 -1.539214 3.470615 0.4770122 7.257261 -34.63722 4.826456 -0 17.64157 -0 -7.740364 -3.291942 -1.289264 -5.196931 14.94466 -16.29279 -0 11.42039 -0 0.4464738 -24.8369 17.13774 -2.041933 -1.375062 3.448343 3.187593 7.964597 -8.512499 1.534731 19.81187 7.70822 4.38942 -26.79804 9.700642 4.396627 -16.90015 10.40879 87.63941 33.17629 -22.17338 -0 0 12.31297 -9.818199 9.446978 3.828559 9.105637 -22.69767 0.01984431 -90.71168 22.84907 16.31316 0 0 -20.36383 11.28902 16.04091 0.1230615
2.244541 104.2706 26.25631 -2.185726 3.835209 1.08114 8.128704 -35.38001 4.649064 -0 16.60548 -0 -8.773534 -1.530752 -1.123248 -4.580426 15.38611 -15.08627 -0 15.03438 -0 -1.67699 -23.80437 14.79246 -1.276624 -1.130316 2.936239 3.255407 7.94401 -8.734617 1.391281 19.56057 7.788516 4.530549 -26.93799 9.424046 4.301874 -16.42283 10.36804 88.08824 33.11399 -22.7184 -0 0 11.54974 -10.14728 9.633177 4.030907 8.823731 -22.81874 -0.25808 -90.53456 22.97619 16.17481 0 0 -20.58435 10.52447 15.613 1.068589
2.2964 104.534 31.49397 -2.792656 3.925993 1.65385 8.930631 -34.73257 4.638951 -0 16.35861 -0 -9.732734 -0.5759174 -1.019251 -3.922225 15.29274 -13.94688 -0 20.08002 -0 -3.628935 -21.48307 12.5369 -0.3592421 -0.9577129 2.510797 3.256278 8.040431 -8.882854 1.193615 19.39791 7.838684 4.628367 -26.8656 9.047025 4.310892 -16.02712 10.41294 88.4531 33.17806 -23.05686 -0 0 10.99375 -10.52241 9.834286 4.329785 8.211492 -22.68616 -0.7974828 -90.48985 23.0337 16.39734 0 0 -20.41182 9.596794 14.96324 2.215695
